<!-- icon666.com - MILLIONS vector ICONS FREE --><svg id="Layer_1" viewBox="0 0 64 64" xmlns="http://www.w3.org/2000/svg" data-name="Layer 1"><path d="m54.56 26.812h-12.189l-9.543-11.453a1 1 0 0 0 -.768-.359h-8a1 1 0 0 0 -.809 1.588l7.435 10.224h-14.186l-4.7-5.212a1 1 0 0 0 -.731-.33l-7.119-.083a.944.944 0 0 0 -.87.489 1 1 0 0 0 -.016 1l4.756 8.554-4.669 10.17a1 1 0 0 0 .909 1.417h8a1 1 0 0 0 .832-.446l3.7-5.554h14.369l-7.71 10.6a1 1 0 0 0 .809 1.583h8a1 1 0 0 0 .768-.359l9.857-11.829h11.875c3.584 0 6.5-2.244 6.5-5s-2.916-5-6.5-5z" fill="#000000" style="fill: rgb(149, 157, 160);"></path></svg>